{"title":"Needle 2010 DVDRip Xvid - zx4600{bsbt-RG}","uid":6057708,"size":886359935,"categoryP":"video","categoryS":"movies","magnet":"?xt=urn:btih:30a1f70df864ed822832ef3bd31f7939d109fefa&amp;dn=Needle+2010+DVDRip+Xvid+-+zx4600%7Bbsbt-RG%7D&amp;tr=udp%3A%2F%2Ftracker.openbittorrent.com%3A80&amp;tr=udp%3A%2F%2Fopen.demonii.com%3A1337&amp;tr=udp%3A%2F%2Ftracker.coppersurfer.tk%3A6969&amp;tr=udp%3A%2F%2Fexodus.desync.com%3A6969","seeders":0,"leechers":0,"uploader":"bsbt-RG","files":3,"time":1292974964,"description":" &lt;a href=&quot;http://img811.imageshack.us/img811/2608/needlecover.jpg&quot; rel=&quot;nofollow&quot; target=&quot;_NEW&quot;&gt;http://img811.imageshack.us/img811/2608/needlecover.jpg&lt;/a&gt;\n\nFormat;Avi\n\nFile Size:845mb\n\nVideo: ID : 0\nFormat : MPEG-4 Visual\nFormat profile : Simple@L3\nFormat settings, BVOP : No\nFormat settings, QPel : No\nFormat settings, GMC : No warppoints\nFormat settings, Matrix : Default (H.263)\nCodec ID : XVID\nCodec ID/Hint : XviD\nDuration : 1h 24mn\nBit rate : 1 254 Kbps\nWidth : 720 pixels\nHeight : 324 pixels\nDisplay aspect ratio : 2.222\nFrame rate : 25.000 fps\nColor space : YUV\nChroma subsampling : 4:2:0\nBit depth : 8 bits\nScan type : Progressive\nBits/(Pixel*Frame) : 0.215\nStream size : 762 MiB (90%)\nWriting library : XviD 1.2.1 (UTC 2008-12-04)\n\nAudio: ID : 1\nFormat : MPEG Audio\nFormat version : Version 1\nFormat profile : Layer 3\nMode : Joint stereo\nCodec ID : 55\nCodec ID/Hint : MP3\nDuration : 1h 24mn\nBit rate mode : Constant\nBit rate : 128 Kbps\nChannel(s) : 2 channels\nSampling rate : 44.1 KHz\nStream size : 77.7 MiB (9%)\nAlignment : Split accross interleaves\nInterleave, duration : 40 ms (1.00 video frame)\nInterleave, preload duration : 500 ms\n\nDuration:1:24\n\nRelease Date:2010\n\nLanguage:English\n\nwww.blackstart.net","torrent":{"xt":"urn:btih:30a1f70df864ed822832ef3bd31f7939d109fefa","amp;dn":"Needle+2010+DVDRip+Xvid+-+zx4600%7Bbsbt-RG%7D","amp;tr":["udp%3A%2F%2Ftracker.openbittorrent.com%3A80","udp%3A%2F%2Fopen.demonii.com%3A1337","udp%3A%2F%2Ftracker.coppersurfer.tk%3A6969","udp%3A%2F%2Fexodus.desync.com%3A6969"],"infoHash":"30a1f70df864ed822832ef3bd31f7939d109fefa","infoHashBuffer":{"type":"Buffer","data":[48,161,247,13,248,100,237,130,40,50,239,59,211,31,121,57,209,9,254,250]},"announce":[],"urlList":[]}}